<svg xmlns="http://www.w3.org/2000/svg" width="40" height="40" viewBox="0 0 40 40" fill="none">
  <path d="M24.1667 27.5L30.36 29.3628C32.6723 30.0705 34.3902 31.9255 34.9605 34.1832C35.1858 35.076 34.4148 35.8333 33.4893 35.8333H6.51065C5.58512 35.8333 4.81409 35.076 5.03959 34.1832C5.60989 31.9255 7.32765 30.0705 9.64002 29.3628L15.8333 27.5V23.9083C13.692 23.637 11.7173 23.1617 10 22.5268C10.8333 20.887 11.6667 18.4272 11.6667 12.6877C11.6667 2.84864 20.8333 2.84853 23.3333 6.12786C28.3333 5.30831 28.3333 9.40804 28.3333 14.3276C28.3333 18.2632 29.4445 21.4337 30 22.5268C28.2827 23.1617 26.308 23.637 24.1667 23.9083V27.5Z" stroke="#CBD5E1" stroke-width="2.25" stroke-linejoin="round"/>
</svg>