<svg xmlns="http://www.w3.org/2000/svg" width="40" height="40" viewBox="0 0 40 40" fill="none">
  <path d="M24.1667 27.5002L30.36 29.363C32.6723 30.0707 34.3902 31.9255 34.9605 34.1833C35.1858 35.0762 34.4148 35.8335 33.4893 35.8335H6.51065C5.58512 35.8335 4.81409 35.0762 5.03959 34.1833C5.60989 31.9255 7.32765 30.0707 9.64002 29.363L15.8333 27.5002V24.2705C12.8653 21.9475 10.8333 19.1665 10.8333 13.1946C10.8333 7.2115 14.0912 4.16656 19.1538 4.16656C22.7388 4.16656 24.2308 5.83323 24.2308 5.83323C28.4615 5.83323 29.1667 9.32855 29.1667 13.1946C29.1667 19.1665 27.1347 21.9475 24.1667 24.2705V27.5002Z" stroke="#CBD5E1" stroke-width="2.25" stroke-linejoin="round"/>
</svg>